<?xml version="1.0" standalone="no"?><svg xmlns="http://www.w3.org/2000/svg" viewBox="0 0 1440 320"><path fill="#0099ff" fill-opacity="1" d="M0,224L21.8,240C43.6,256,87,288,131,256C174.5,224,218,128,262,122.7C305.5,117,349,203,393,245.3C436.4,288,480,288,524,245.3C567.3,203,611,117,655,74.7C698.2,32,742,32,785,58.7C829.1,85,873,139,916,160C960,181,1004,171,1047,170.7C1090.9,171,1135,181,1178,160C1221.8,139,1265,85,1309,58.7C1352.7,32,1396,32,1418,32L1440,32L1440,320L1418.2,320C1396.4,320,1353,320,1309,320C1265.5,320,1222,320,1178,320C1134.5,320,1091,320,1047,320C1003.6,320,960,320,916,320C872.7,320,829,320,785,320C741.8,320,698,320,655,320C610.9,320,567,320,524,320C480,320,436,320,393,320C349.1,320,305,320,262,320C218.2,320,175,320,131,320C87.3,320,44,320,22,320L0,320Z"></path></svg>